<svg width="60" height="70" viewBox="0 0 60 70" fill="none" xmlns="http://www.w3.org/2000/svg">
<path d="M19.413 37.1561C19.9851 37.1065 20.4085 36.6027 20.3591 36.0306L19.2942 23.746C19.235 23.0645 19.5537 22.4532 20.1471 22.1104C20.7393 21.7681 21.4279 21.7977 21.989 22.1901L47.12 39.7558C47.3014 39.8827 47.5091 39.9435 47.7146 39.9435C48.0426 39.9435 48.3654 39.7887 48.5677 39.4994C48.8966 39.0288 48.7817 38.3807 48.3111 38.0517L23.1803 20.486C21.9577 19.6315 20.3966 19.5644 19.1067 20.3104C17.8158 21.056 17.0939 22.4413 17.2228 23.9257L18.2875 36.2104C18.3371 36.7823 18.8422 37.2056 19.413 37.1561Z" fill="#01BFFF"/>
<path d="M57.9163 44.7657L52.0704 40.6796C51.5998 40.3507 50.9519 40.4656 50.6227 40.9362C50.2938 41.4068 50.4087 42.055 50.8793 42.3839L56.7252 46.4699C57.7118 47.1598 57.7782 48.199 57.5113 48.9417C57.2443 49.684 56.5335 50.4433 55.3314 50.3466L38.4277 48.9923C37.5704 48.9233 36.7254 49.1147 35.9862 49.5436C35.2413 49.9727 34.653 50.6095 34.2853 51.3844L27.0066 66.6999C26.4902 67.7871 25.4762 68.0244 24.6997 67.8843C23.9233 67.7441 23.0567 67.1671 22.9532 65.9682L20.7381 40.4117C20.6885 39.8398 20.1845 39.4167 19.6126 39.4658C19.0405 39.5154 18.617 40.0193 18.6665 40.5913L20.8816 66.1476C21.0475 68.0677 22.4334 69.588 24.3302 69.9305C24.5903 69.9775 24.8491 70.0004 25.1043 70.0004C26.7102 70.0004 28.171 69.0946 28.8846 67.5925L36.1636 52.2763C36.3495 51.8846 36.647 51.5626 37.0269 51.3437C37.4013 51.1267 37.8277 51.0301 38.2615 51.065L55.1652 52.4193C57.0889 52.5742 58.8159 51.4588 59.4678 49.6452C60.12 47.8311 59.4963 45.8703 57.9163 44.7657Z" fill="#01BFFF"/>
<path d="M24.016 28.8118C23.5188 29.0989 23.3485 29.7347 23.6355 30.2319L33.6058 47.501C33.7983 47.8345 34.1477 48.0209 34.507 48.0209C34.6834 48.0209 34.8623 47.976 35.0259 47.8815C35.5231 47.5944 35.6934 46.9586 35.4064 46.4614L25.4361 29.1923C25.1491 28.6951 24.5132 28.5247 24.016 28.8118Z" fill="#01BFFF"/>
<path d="M18.1187 9.1298C18.6928 9.1298 19.1583 8.66434 19.1583 8.0902V1.0396C19.1583 0.465465 18.6928 0 18.1187 0C17.5446 0 17.0791 0.465465 17.0791 1.0396V8.0902C17.0791 8.66434 17.5446 9.1298 18.1187 9.1298Z" fill="#01BFFF"/>
<path d="M6.97288 5.22607C6.56688 4.82007 5.9086 4.82007 5.50274 5.22607C5.09674 5.63207 5.09674 6.29021 5.50274 6.69621L10.4881 11.6817C10.6911 11.8848 10.9572 11.9863 11.2232 11.9863C11.4892 11.9863 11.7553 11.8848 11.9583 11.6817C12.3643 11.2757 12.3643 10.6176 11.9583 10.2116L6.97288 5.22607Z" fill="#01BFFF"/>
<path d="M9.40603 17.8433C9.40603 17.2692 8.94057 16.8037 8.36643 16.8037H1.31597C0.741833 16.8037 0.276367 17.2692 0.276367 17.8433C0.276367 18.4175 0.741833 18.8829 1.31597 18.8829H8.36643C8.94057 18.8829 9.40603 18.4175 9.40603 17.8433Z" fill="#01BFFF"/>
<path d="M26.8323 17.8433C26.8323 18.4175 27.2977 18.8829 27.8719 18.8829H34.9225C35.4968 18.8829 35.9621 18.4175 35.9621 17.8433C35.9621 17.2692 35.4968 16.8037 34.9225 16.8037H27.8719C27.2977 16.8037 26.8323 17.269 26.8323 17.8433Z" fill="#01BFFF"/>
<path d="M10.4881 24.0046L5.50274 28.9901C5.09674 29.3961 5.09674 30.0544 5.50274 30.4602C5.70567 30.6633 5.97181 30.7648 6.23781 30.7648C6.50381 30.7648 6.76995 30.6633 6.97288 30.4602L11.9583 25.4747C12.3643 25.0687 12.3643 24.4104 11.9583 24.0046C11.5524 23.5986 10.8941 23.5986 10.4881 24.0046Z" fill="#01BFFF"/>
<path d="M25.0164 11.9864C25.2824 11.9864 25.5485 11.8849 25.7514 11.6818L30.737 6.69631C31.143 6.29031 31.143 5.63203 30.737 5.22617C30.3308 4.82017 29.6727 4.82031 29.2667 5.22617L24.2813 10.2117C23.8753 10.6177 23.8753 11.276 24.2813 11.6818C24.4842 11.8849 24.7504 11.9864 25.0164 11.9864Z" fill="#01BFFF"/>
</svg>
