<svg width="24" height="24" viewBox="0 0 24 24" fill="none" xmlns="http://www.w3.org/2000/svg">
<path d="M12 24C18.617 24 24 18.617 24 12C24 5.383 18.617 0 12 0C5.383 0 0 5.383 0 12C0 18.617 5.383 24 12 24ZM17 7.065C18.103 7.065 19 7.962 19 9.065C19 10.168 18.103 11.065 17 11.065C15.897 11.065 15 10.168 15 9.065C15 7.962 15.897 7.065 17 7.065ZM7 7.065C8.103 7.065 9 7.962 9 9.065C9 10.168 8.103 11.065 7 11.065C5.897 11.065 5 10.168 5 9.065C5 7.962 5.897 7.065 7 7.065ZM3.646 14.305C3.788 14.113 4.012 14 4.25 14H19.75C19.988 14 20.212 14.113 20.354 14.305C20.495 14.497 20.537 14.744 20.466 14.972C19.306 18.709 15.904 21.22 12 21.22C8.096 21.22 4.693 18.709 3.534 14.972C3.463 14.745 3.505 14.497 3.646 14.305Z" fill="white"/>
</svg>
