<svg width="24" height="24" viewBox="0 0 24 24" fill="none" xmlns="http://www.w3.org/2000/svg">
<path d="M12 0C5.38 0 0 5.38 0 12C0 18.62 5.38 24 12 24C18.62 24 24 18.62 24 12C24 5.38 18.62 0 12 0ZM5 9.07C5 7.96 5.9 7.07 7 7.07C8.1 7.07 9 7.96 9 9.07C9 10.17 8.1 11.07 7 11.07C5.9 11.07 5 10.17 5 9.07ZM17.707 18.743C17.512 18.938 17.256 19.036 17 19.036C16.744 19.036 16.488 18.938 16.293 18.743C15.147 17.596 13.622 16.965 12 16.965C10.378 16.965 8.854 17.596 7.707 18.743C7.316 19.134 6.684 19.134 6.293 18.743C5.902 18.353 5.902 17.72 6.293 17.329C7.817 15.805 9.844 14.965 12 14.965C14.156 14.965 16.183 15.805 17.707 17.329C18.098 17.719 18.098 18.353 17.707 18.743ZM17 11.07C15.9 11.07 15 10.17 15 9.07C15 7.96 15.9 7.07 17 7.07C18.1 7.07 19 7.96 19 9.07C19 10.17 18.1 11.07 17 11.07Z" fill="white"/>
</svg>
