<svg width="24" height="24" viewBox="0 0 24 24" fill="none" xmlns="http://www.w3.org/2000/svg">
<path d="M12 0C5.38 0 0 5.38 0 12C0 18.62 5.38 24 12 24C18.62 24 24 18.62 24 12C24 5.38 18.62 0 12 0ZM5 9.07C5 7.96 5.9 7.07 7 7.07C8.1 7.07 9 7.96 9 9.07C9 10.17 8.1 11.07 7 11.07C5.9 11.07 5 10.17 5 9.07ZM15.25 18.25H8.75C8.198 18.25 7.75 17.802 7.75 17.25C7.75 16.698 8.198 16.25 8.75 16.25H15.25C15.802 16.25 16.25 16.698 16.25 17.25C16.25 17.802 15.802 18.25 15.25 18.25ZM17 11.07C15.9 11.07 15 10.17 15 9.07C15 7.96 15.9 7.07 17 7.07C18.1 7.07 19 7.96 19 9.07C19 10.17 18.1 11.07 17 11.07Z" fill="white"/>
</svg>
