<svg width="59" height="60" viewBox="0 0 59 60" fill="none" xmlns="http://www.w3.org/2000/svg">
<g clip-path="url(#clip0)">
<path fill-rule="evenodd" clip-rule="evenodd" d="M0 6.69066L34.5867 0.0100098L34.4666 59.99L0 52.8377V6.69066ZM12.2636 37.8384C9.64791 34.7768 8.91895 29.9657 10.171 25.9693C11.9119 20.4121 16.3285 18.534 20.0248 19.8204C22.1344 20.5579 24.0126 22.3331 25.0159 25.0517C25.4962 26.3553 25.7535 27.8475 25.7706 29.3654C25.8049 32.0925 24.8616 35.2999 22.992 37.5383C20.1191 40.9686 15.248 41.3202 12.2721 37.8384H12.2636ZM14.9564 34.9312C13.67 33.0187 13.3184 30.0172 13.9273 27.5216C14.7763 24.0569 16.946 22.882 18.7555 23.6881C19.7932 24.1512 20.7108 25.2575 21.1997 26.9556C21.4312 27.7703 21.5599 28.6965 21.5684 29.6484C21.5856 31.3464 21.1225 33.3532 20.2049 34.7511C18.7984 36.8951 16.4143 37.1095 14.9564 34.9398V34.9312ZM36.8421 12.6509H56.9184C58.0418 12.6509 58.9594 13.5685 58.9594 14.692V15.4295L43.1797 26.0722C42.9739 26.2095 42.4679 26.604 42.0477 26.8698C41.4303 27.2729 41.3874 27.1957 40.7356 26.8269C39.7322 26.2695 37.9999 25.086 36.8336 24.2799V12.6509H36.8421ZM58.968 20.1549V41.629C58.968 43.3442 57.5616 44.7592 55.8378 44.7592H36.8421V28.8766C37.9827 29.6313 39.5007 30.6261 40.4354 31.2006C41.1901 31.6637 41.3273 31.8781 42.1678 31.3893C42.5537 31.1663 42.931 30.8748 43.1883 30.7032L58.968 20.1634V20.1549Z" <svg width="90" height="50" viewBox="0 0 90 50" fill="none" xmlns="http://www.w3.org/2000/svg">
<g clip-path="url(#clip0)">
<path d="M73.8548 50H16.1936C15.1013 50 14.0537 49.5661 13.2813 48.7937C12.5089 48.0213 12.075 46.9737 12.075 45.8813V4.69466C12.075 3.60232 12.5089 2.55472 13.2813 1.78232C14.0537 1.00992 15.1013 0.575989 16.1936 0.575989H73.8548C74.9472 0.575989 75.9948 1.00992 76.7672 1.78232C77.5396 2.55472 77.9735 3.60232 77.9735 4.69466V45.8813C77.9735 46.9737 77.5396 48.0213 76.7672 48.7937C75.9948 49.5661 74.9472 50 73.8548 50Z" fill="#EFF1F4"/>
<path d="M20.3123 50H16.1936C15.1013 50 14.0537 49.5661 13.2813 48.7937C12.5089 48.0213 12.075 46.9737 12.075 45.8813V4.69466C12.075 4.15378 12.1815 3.61821 12.3885 3.11851C12.5954 2.61881 12.8988 2.16477 13.2813 1.78232C13.6637 1.39986 14.1178 1.09649 14.6175 0.889503C15.1172 0.682521 15.6528 0.575989 16.1936 0.575989C16.7345 0.575989 17.2701 0.682521 17.7698 0.889503C18.2695 1.09649 18.7235 1.39986 19.106 1.78232C19.4884 2.16477 19.7918 2.61881 19.9988 3.11851C20.2058 3.61821 20.3123 4.15378 20.3123 4.69466V50Z" id="icons"  fill="#DAE2EB"/>
<path d="M69.7367 50H73.8554C74.9477 50 75.9953 49.5661 76.7677 48.7937C77.5401 48.0213 77.974 46.9737 77.974 45.8813V4.69466C77.974 3.60232 77.5401 2.55472 76.7677 1.78232C75.9953 1.00992 74.9477 0.575989 73.8554 0.575989C72.763 0.575989 71.7154 1.00992 70.943 1.78232C70.1706 2.55472 69.7367 3.60232 69.7367 4.69466V50Z" fill="#CBD4DF"/>
<path d="M76.2147 8.07195C76.6582 7.76221 77.0364 7.36815 77.3276 6.91226C77.6188 6.45638 77.8174 5.94759 77.912 5.41496C78.0066 4.88234 77.9953 4.33629 77.8789 3.808C77.7625 3.27972 77.5431 2.77954 77.2334 2.33603C76.9236 1.89252 76.5296 1.51435 76.0737 1.22313C75.6178 0.93191 75.109 0.733334 74.5764 0.63874C74.0437 0.544147 73.4977 0.555389 72.9694 0.671825C72.4411 0.78826 71.9409 1.00761 71.4974 1.31735L45.0281 20.5886L45.0253 20.5899L45.0226 20.5886L18.5532 1.31735C17.6575 0.691803 16.55 0.4477 15.4743 0.63874C14.3986 0.82978 13.4428 1.44031 12.8173 2.33603C12.1917 3.23174 11.9476 4.33927 12.1387 5.41496C12.3297 6.49066 12.9403 7.4464 13.836 8.07195L13.7261 7.99095L45.0253 30.7795L76.2147 8.07195ZM76.3259 7.99095L45.0253 30.7795L76.3259 7.99095Z" id="icons"  fill="#DAE2EB"/>
<path d="M73.8553 0.575994C72.978 0.575994 72.1639 0.850572 71.4967 1.31735L45.0274 20.5886L45.0246 20.59L45.0219 20.5886L18.5526 1.31735C17.8613 0.833553 17.0377 0.574672 16.194 0.575994H73.8553Z" id="icons"  fill="#EFF1F4"/>
<path d="M20.3143 14.5629L13.373 7.6875L13.3702 7.69299C13.5158 7.83028 13.6709 7.95658 13.8356 8.07191L13.7258 7.99091L20.3157 12.7892L20.3143 14.6124" fill="#CBD4DF"/>
<path d="M40.4503 34.3367L20.3129 50L20.3142 14.3914L40.4462 34.3312" fill="#E5E9EF"/>
<path d="M40.4496 34.3366L45.0241 30.7795L20.3135 12.7892V14.3913L40.4455 34.3311L40.4496 34.3366Z" fill="url(#paint0_linear)"/>
<path d="M56.0912 50H69.7363V12.7878L45.0243 30.7796L40.4457 34.3312L56.0912 50Z" fill="url(#paint1_linear)"/>
</g>
<defs>
<linearGradient id="paint0_linear" x1="20.3135" y1="23.5636" x2="45.0241" y2="23.5636" gradientUnits="userSpaceOnUse">
<stop stop-color="#D0D4DB"/>
<stop offset="1" stop-color="#DADFE7"/>
</linearGradient>
<linearGradient id="paint1_linear" x1="40.4457" y1="31.3932" x2="69.7363" y2="31.3932" gradientUnits="userSpaceOnUse">
<stop stop-color="#DADFE7"/>
<stop offset="1" stop-color="#E5E9EF"/>
</linearGradient>
<clipPath id="clip0">
<rect width="89.67" height="50" fill="white"/>
</clipPath>
</defs>
</svg>fill="#DAE2EB"/>
</g>
<defs>
<clipPath id="clip0">
<rect width="58.968" height="60" fill="white"/>
</clipPath>
</defs>
</svg>
